<?xml version="1.0" encoding="UTF-8"?>
<svg width="34px" height="34px" viewBox="0 0 34 34" version="1.1" xmlns="http://www.w3.org/2000/svg" xmlns:xlink="http://www.w3.org/1999/xlink">
    <!-- Generator: Sketch 42 (36781) - http://www.bohemiancoding.com/sketch -->
    <title>Combined Shape</title>
    <desc>Created with Sketch.</desc>
    <defs>
        <path d="M0,4.00021236 C0,1.79095608 1.79203193,0 4.00021236,0 L29.9997876,0 C32.2090439,0 34,1.79203193 34,4.00021236 L34,29.9997876 C34,32.2090439 32.2079681,34 29.9997876,34 L4.00021236,34 C1.79095608,34 0,32.2079681 0,29.9997876 L0,4.00021236 Z M17,6.5 C11.1915,6.5 6.5115,11.203 6.5115,17.0115 C6.5115,22.8205 11.1915,27.5 17,27.5 C22.8085,27.5 27.4885,22.8205 27.4885,17.0115 C27.4885,11.203 22.8085,6.5 17,6.5 Z M16.6377578,7.92490522 L17.3622422,7.92490522 L17.3622422,9.37387405 L16.6377578,9.37387405 L16.6377578,7.92490522 Z M12.6076925,9.00052308 L13.3321769,10.257262 L12.6984945,10.6195042 L11.9740101,9.36276528 L12.6076925,9.00052308 Z M21.3923075,9.00052308 L22.0259899,9.36276528 L21.3015055,10.6195042 L20.6678231,10.257262 L21.3923075,9.00052308 Z M23.4411494,10.3813904 C23.648835,10.3229486 23.6618757,10.258711 23.8937107,10.4248594 C24.0110772,10.5494708 24.0540633,10.7513604 23.9507035,10.8909444 L18.3132487,18.5772411 C18.2905482,18.6076694 18.2639838,18.6337508 18.2340385,18.6564514 L10.5588506,24.2827973 C10.4211985,24.3789123 10.2173769,24.3620076 10.0966295,24.2446411 C9.97781406,24.1277577 9.95511355,23.923936 10.0492965,23.784352 L15.6867513,16.0980554 C15.7094518,16.06811 15.7360162,16.0415456 15.7659615,16.0188451 L23.4411494,10.3813904 Z M9.01956268,12.3172127 L10.2758187,13.0416971 L9.91357644,13.6642707 L8.65732047,12.9397863 L9.01956268,12.3172127 Z M24.9804373,12.3172127 L25.3426795,12.9397863 L24.0864236,13.6642707 L23.7241813,13.0416971 L24.9804373,12.3172127 Z M7.58170261,16.9809604 L9.03067144,16.9809604 L9.03067144,17.7054448 L7.58170261,17.7054448 L7.58170261,16.9809604 Z M24.9693286,16.9809604 L26.4182974,16.9809604 L26.4182974,17.7054448 L24.9693286,17.7054448 L24.9693286,16.9809604 Z M9.91357644,21.0110257 L10.2758187,21.6335993 L9.01956268,22.3580837 L8.65732047,21.7355101 L9.91357644,21.0110257 Z M24.0864236,21.0110257 L25.3426795,21.7355101 L24.9804373,22.3580837 L23.7241813,21.6335993 L24.0864236,21.0110257 Z M12.6984945,24.0562752 L13.3321769,24.4185174 L12.6076925,25.6747734 L11.9740101,25.3125312 L12.6984945,24.0562752 Z M21.3015055,24.0562752 L22.0259899,25.3125312 L21.3923075,25.6747734 L20.6678231,24.4185174 L21.3015055,24.0562752 Z M16.6377578,25.3125312 L17.3622422,25.3125312 L17.3622422,26.7615 L16.6377578,26.7615 L16.6377578,25.3125312 Z" id="path-1"></path>
        <mask id="mask-2" maskContentUnits="userSpaceOnUse" maskUnits="objectBoundingBox" x="0" y="0" width="34" height="34" fill="white">
            <use xlink:href="#path-1"></use>
        </mask>
    </defs>
    <g id="Page-2" stroke="none" stroke-width="1" fill="none" fill-rule="evenodd">
        <use id="Combined-Shape" stroke="#9B9B9B" mask="url(#mask-2)" stroke-width="4" xlink:href="#path-1"></use>
    </g>
</svg>