<?xml version="1.0" encoding="utf-8"?>
<!-- Generator: Adobe Illustrator 21.0.0, SVG Export Plug-In . SVG Version: 6.00 Build 0)  -->
<svg version="1.1" id="Layer_1" xmlns="http://www.w3.org/2000/svg" xmlns:xlink="http://www.w3.org/1999/xlink" x="0px" y="0px"
	 viewBox="0 0 36 36" style="enable-background:new 0 0 36 36;" xml:space="preserve">
<style type="text/css">
	.st0{clip-path:url(#SVGID_2_);fill:#979797;}
	.st1{clip-path:url(#SVGID_4_);fill:#979797;}
	.st2{clip-path:url(#SVGID_6_);fill:#979797;}
	.st3{clip-path:url(#SVGID_8_);fill:#979797;}
	.st4{clip-path:url(#SVGID_10_);fill:#979797;}
	.st5{clip-path:url(#SVGID_12_);fill:#9B9B9B;}
	.st6{clip-path:url(#SVGID_14_);fill:#9B9B9B;}
	.st7{clip-path:url(#SVGID_16_);fill:#9B9B9B;}
	.st8{clip-path:url(#SVGID_18_);fill:#9B9B9B;}
	.st9{clip-path:url(#SVGID_20_);fill:#9B9B9B;}
	.st10{clip-path:url(#SVGID_22_);fill:#9B9B9B;}
	.st11{clip-path:url(#SVGID_24_);fill:#9B9B9B;}
	.st12{clip-path:url(#SVGID_26_);fill:#9B9B9B;}
	.st13{clip-path:url(#SVGID_28_);fill:#9B9B9B;}
	.st14{clip-path:url(#SVGID_30_);fill:#9B9B9B;}
	.st15{clip-path:url(#SVGID_32_);fill:#9B9B9B;}
	.st16{clip-path:url(#SVGID_34_);fill:#9B9B9B;}
	.st17{clip-path:url(#SVGID_36_);fill:#9B9B9B;}
</style>
<g>
	<g>
		<defs>
			<path id="SVGID_1_" d="M11-74c0-2.8,2.2-5,5-5h26c2.8,0,5,2.2,5,5v26c0,2.8-2.2,5-5,5H16c-2.8,0-5-2.2-5-5V-74z M13-74v26
				c0,1.7,1.3,3,3,3h26c1.7,0,3-1.3,3-3v-26c0-1.7-1.3-3-3-3H16C14.3-77,13-75.7,13-74z"/>
		</defs>
		<clipPath id="SVGID_2_">
			<use xlink:href="#SVGID_1_"  style="overflow:visible;"/>
		</clipPath>
		<rect x="6" y="-84" class="st0" width="46" height="46"/>
	</g>
	<g>
		<defs>
			<polygon id="SVGID_3_" points="31.9,-53.7 39,-60.2 45.2,-54.3 46.5,-55.8 39,-62.9 31.9,-56.4 22,-65.3 11.3,-55.8 12.7,-54.3 
				22,-62.7 			"/>
		</defs>
		<clipPath id="SVGID_4_">
			<use xlink:href="#SVGID_3_"  style="overflow:visible;"/>
		</clipPath>
		<rect x="6.3" y="-70.3" class="st1" width="45.2" height="21.6"/>
	</g>
	<g>
		<defs>
			<path id="SVGID_5_" d="M32-67c1.1,0,2-0.9,2-2s-0.9-2-2-2c-1.1,0-2,0.9-2,2S30.9-67,32-67z M32-65c-2.2,0-4-1.8-4-4s1.8-4,4-4
				s4,1.8,4,4S34.2-65,32-65z"/>
		</defs>
		<clipPath id="SVGID_6_">
			<use xlink:href="#SVGID_5_"  style="overflow:visible;"/>
		</clipPath>
		<rect x="23" y="-78" class="st2" width="18" height="18"/>
	</g>
</g>
<g>
	<defs>
		<path id="SVGID_7_" d="M0,5c0-2.8,2.2-5,5-5h26c2.8,0,5,2.2,5,5v26c0,2.8-2.2,5-5,5H5c-2.8,0-5-2.2-5-5V5z M2,5v26
			c0,1.7,1.3,3,3,3h26c1.7,0,3-1.3,3-3V5c0-1.7-1.3-3-3-3H5C3.3,2,2,3.3,2,5z"/>
	</defs>
	<clipPath id="SVGID_8_">
		<use xlink:href="#SVGID_7_"  style="overflow:visible;"/>
	</clipPath>
	<rect x="-5" y="-5" class="st3" width="46" height="46"/>
</g>
<g>
	<defs>
		<path id="SVGID_9_" d="M18,7C11.9,7,7,11.9,7,18c0,6.1,4.9,11,11,11s11-4.9,11-11C29,11.9,24.1,7,18,7z M18,5c7.2,0,13,5.8,13,13
			c0,7.2-5.8,13-13,13S5,25.2,5,18C5,10.8,10.8,5,18,5z"/>
	</defs>
	<clipPath id="SVGID_10_">
		<use xlink:href="#SVGID_9_"  style="overflow:visible;"/>
	</clipPath>
	<rect class="st4" width="36" height="36"/>
</g>
<g>
	<defs>
		<rect id="SVGID_11_" x="17.6" y="8.9" width="0.7" height="1.4"/>
	</defs>
	<clipPath id="SVGID_12_">
		<use xlink:href="#SVGID_11_"  style="overflow:visible;"/>
	</clipPath>
	<rect x="12.6" y="3.9" class="st5" width="10.7" height="11.4"/>
</g>
<g>
	<defs>
		<polygon id="SVGID_13_" points="13.6,10 13,10.4 13.7,11.6 14.3,11.3 		"/>
	</defs>
	<clipPath id="SVGID_14_">
		<use xlink:href="#SVGID_13_"  style="overflow:visible;"/>
	</clipPath>
	<rect x="8" y="5" class="st6" width="11.4" height="11.6"/>
</g>
<g>
	<defs>
		<polygon id="SVGID_15_" points="22.4,10 21.7,11.3 22.3,11.6 23,10.4 		"/>
	</defs>
	<clipPath id="SVGID_16_">
		<use xlink:href="#SVGID_15_"  style="overflow:visible;"/>
	</clipPath>
	<rect x="16.7" y="5" class="st7" width="11.4" height="11.6"/>
</g>
<g>
	<defs>
		<path id="SVGID_17_" d="M24.4,11.4L16.8,17c0,0-0.1,0-0.1,0.1L11,24.8c-0.1,0.1-0.1,0.3,0,0.5c0.1,0.1,0.3,0.1,0.5,0l7.7-5.6
			c0,0,0.1,0,0.1-0.1l5.6-7.7c0.1-0.1,0.1-0.3-0.1-0.5C24.7,11.3,24.6,11.3,24.4,11.4z"/>
	</defs>
	<clipPath id="SVGID_18_">
		<use xlink:href="#SVGID_17_"  style="overflow:visible;"/>
	</clipPath>
	<rect x="6" y="6.3" class="st8" width="24" height="24"/>
</g>
<g>
	<defs>
		<polygon id="SVGID_19_" points="10,13.3 9.7,13.9 10.9,14.7 11.3,14 		"/>
	</defs>
	<clipPath id="SVGID_20_">
		<use xlink:href="#SVGID_19_"  style="overflow:visible;"/>
	</clipPath>
	<rect x="4.7" y="8.3" class="st9" width="11.6" height="11.3"/>
</g>
<g>
	<defs>
		<polygon id="SVGID_21_" points="26,13.3 24.7,14 25.1,14.7 26.3,13.9 		"/>
	</defs>
	<clipPath id="SVGID_22_">
		<use xlink:href="#SVGID_21_"  style="overflow:visible;"/>
	</clipPath>
	<rect x="19.7" y="8.3" class="st10" width="11.6" height="11.3"/>
</g>
<g>
	<defs>
		<rect id="SVGID_23_" x="8.6" y="18" width="1.4" height="0.7"/>
	</defs>
	<clipPath id="SVGID_24_">
		<use xlink:href="#SVGID_23_"  style="overflow:visible;"/>
	</clipPath>
	<rect x="3.6" y="13" class="st11" width="11.4" height="10.7"/>
</g>
<g>
	<defs>
		<rect id="SVGID_25_" x="26" y="18" width="1.4" height="0.7"/>
	</defs>
	<clipPath id="SVGID_26_">
		<use xlink:href="#SVGID_25_"  style="overflow:visible;"/>
	</clipPath>
	<rect x="21" y="13" class="st12" width="11.4" height="10.7"/>
</g>
<g>
	<defs>
		<polygon id="SVGID_27_" points="10.9,22 9.7,22.7 10,23.4 11.3,22.6 		"/>
	</defs>
	<clipPath id="SVGID_28_">
		<use xlink:href="#SVGID_27_"  style="overflow:visible;"/>
	</clipPath>
	<rect x="4.7" y="17" class="st13" width="11.6" height="11.3"/>
</g>
<g>
	<defs>
		<polygon id="SVGID_29_" points="25.1,22 24.7,22.6 26,23.4 26.3,22.7 		"/>
	</defs>
	<clipPath id="SVGID_30_">
		<use xlink:href="#SVGID_29_"  style="overflow:visible;"/>
	</clipPath>
	<rect x="19.7" y="17" class="st14" width="11.6" height="11.3"/>
</g>
<g>
	<defs>
		<polygon id="SVGID_31_" points="13.7,25.1 13,26.3 13.6,26.7 14.3,25.4 		"/>
	</defs>
	<clipPath id="SVGID_32_">
		<use xlink:href="#SVGID_31_"  style="overflow:visible;"/>
	</clipPath>
	<rect x="8" y="20.1" class="st15" width="11.4" height="11.6"/>
</g>
<g>
	<defs>
		<polygon id="SVGID_33_" points="22.3,25.1 21.7,25.4 22.4,26.7 23,26.3 		"/>
	</defs>
	<clipPath id="SVGID_34_">
		<use xlink:href="#SVGID_33_"  style="overflow:visible;"/>
	</clipPath>
	<rect x="16.7" y="20.1" class="st16" width="11.4" height="11.6"/>
</g>
<g>
	<defs>
		<rect id="SVGID_35_" x="17.6" y="26.3" width="0.7" height="1.4"/>
	</defs>
	<clipPath id="SVGID_36_">
		<use xlink:href="#SVGID_35_"  style="overflow:visible;"/>
	</clipPath>
	<rect x="12.6" y="21.3" class="st17" width="10.7" height="11.4"/>
</g>
</svg>
