<?xml version="1.0" encoding="UTF-8"?>
<svg width="35px" height="34px" viewBox="0 0 35 34" version="1.1" xmlns="http://www.w3.org/2000/svg" xmlns:xlink="http://www.w3.org/1999/xlink">
    <!-- Generator: Sketch 42 (36781) - http://www.bohemiancoding.com/sketch -->
    <title>Combined Shape</title>
    <desc>Created with Sketch.</desc>
    <defs></defs>
    <g id="Page-2" stroke="none" stroke-width="1" fill="none" fill-rule="evenodd">
        <path d="M0,10.6694311 C0,8.09057549 2.09045879,6 4.66943106,6 L8.16390228,6 C10.7427578,6 12.8333333,8.09045879 12.8333333,10.6694311 L12.8333333,14.1639023 C12.8333333,16.7427578 10.7428745,18.8333333 8.16390228,18.8333333 L4.66943106,18.8333333 C2.09057549,18.8333333 0,16.7428745 0,14.1639023 L0,10.6694311 Z M2.33333333,10.6694311 L2.33333333,14.1639023 C2.33333333,15.4541608 3.37919059,16.5 4.66943106,16.5 L8.16390228,16.5 C9.4541608,16.5 10.5,15.4541427 10.5,14.1639023 L10.5,10.6694311 C10.5,9.37917253 9.45414275,8.33333333 8.16390228,8.33333333 L4.66943106,8.33333333 C3.37917253,8.33333333 2.33333333,9.37919059 2.33333333,10.6694311 Z M0,25.8360977 C0,23.2572422 2.09045879,21.1666667 4.66943106,21.1666667 L8.16390228,21.1666667 C10.7427578,21.1666667 12.8333333,23.2571255 12.8333333,25.8360977 L12.8333333,29.3305689 C12.8333333,31.9094245 10.7428745,34 8.16390228,34 L4.66943106,34 C2.09057549,34 0,31.9095412 0,29.3305689 L0,25.8360977 Z M2.33333333,25.8360977 L2.33333333,29.3305689 C2.33333333,30.6208275 3.37919059,31.6666667 4.66943106,31.6666667 L8.16390228,31.6666667 C9.4541608,31.6666667 10.5,30.6208094 10.5,29.3305689 L10.5,25.8360977 C10.5,24.5458392 9.45414275,23.5 8.16390228,23.5 L4.66943106,23.5 C3.37917253,23.5 2.33333333,24.5458573 2.33333333,25.8360977 Z M16.3333333,25.8360977 C16.3333333,23.2572422 18.4237921,21.1666667 21.0027644,21.1666667 L24.4972356,21.1666667 C27.0760912,21.1666667 29.1666667,23.2571255 29.1666667,25.8360977 L29.1666667,29.3305689 C29.1666667,31.9094245 27.0762079,34 24.4972356,34 L21.0027644,34 C18.4239088,34 16.3333333,31.9095412 16.3333333,29.3305689 L16.3333333,25.8360977 Z M18.6666667,25.8360977 L18.6666667,29.3305689 C18.6666667,30.6208275 19.7125239,31.6666667 21.0027644,31.6666667 L24.4972356,31.6666667 C25.7874941,31.6666667 26.8333333,30.6208094 26.8333333,29.3305689 L26.8333333,25.8360977 C26.8333333,24.5458392 25.7874761,23.5 24.4972356,23.5 L21.0027644,23.5 C19.7125059,23.5 18.6666667,24.5458573 18.6666667,25.8360977 Z M35,6.91073928 C35,7.1077284 34.9013929,7.25589117 34.7037572,7.45330121 L30.6545439,11.3993975 L31.5925759,16.9731796 L31.5925759,17.219837 C31.5925759,17.3679997 31.5925759,17.5157416 31.4939687,17.6142361 C31.3949402,17.7131516 31.2963331,17.7623989 31.148001,17.7623989 C31.0000903,17.7623989 30.8517582,17.7131516 30.7038475,17.6142361 L25.6668774,14.999921 L20.6294858,17.6142361 C20.4815751,17.7131516 20.333243,17.7623989 20.1853323,17.7623989 C20.0370002,17.7623989 19.9383931,17.7131516 19.839786,17.6142361 C19.790061,17.5157416 19.7407575,17.3679997 19.7407575,17.219837 L19.7407575,16.9731796 L20.6792108,11.3993975 L16.6295761,7.45330121 C16.4323619,7.25589117 16.3333333,7.05848112 16.3333333,6.91073928 C16.3333333,6.66408195 16.5802726,6.4666719 16.9755439,6.41742462 L22.6049996,5.62820536 L25.1236954,0.547737895 C25.2716061,0.25141237 25.4692417,0.103670524 25.6668774,0.103670524 C25.8640916,0.103670524 26.0617273,0.25141237 26.2100594,0.547737895 L28.7283337,5.62820536 L34.3582109,6.41742462 C34.8023643,6.4666719 35,6.61483467 35,6.91073928 Z" id="Combined-Shape" fill="#9B9B9B"></path>
    </g>
</svg>