<?xml version="1.0" encoding="utf-8"?>
<!-- Generator: Adobe Illustrator 21.0.0, SVG Export Plug-In . SVG Version: 6.00 Build 0)  -->
<svg version="1.1" id="Layer_1" xmlns="http://www.w3.org/2000/svg" xmlns:xlink="http://www.w3.org/1999/xlink" x="0px" y="0px"
	 viewBox="0 0 36 36" style="enable-background:new 0 0 36 36;" xml:space="preserve">
<style type="text/css">
	.st0{clip-path:url(#SVGID_2_);fill:#979797;}
	.st1{clip-path:url(#SVGID_4_);fill:#979797;}
	.st2{clip-path:url(#SVGID_6_);fill:#979797;}
</style>
<g>
	<defs>
		<path id="SVGID_1_" d="M0,5c0-2.8,2.2-5,5-5h26c2.8,0,5,2.2,5,5v26c0,2.8-2.2,5-5,5H5c-2.8,0-5-2.2-5-5V5z M2,5v26
			c0,1.7,1.3,3,3,3h26c1.7,0,3-1.3,3-3V5c0-1.7-1.3-3-3-3H5C3.3,2,2,3.3,2,5z"/>
	</defs>
	<clipPath id="SVGID_2_">
		<use xlink:href="#SVGID_1_"  style="overflow:visible;"/>
	</clipPath>
	<rect x="-5" y="-5" class="st0" width="46" height="46"/>
</g>
<g>
	<defs>
		<polygon id="SVGID_3_" points="20.9,25.3 28,18.8 34.2,24.7 35.5,23.2 28,16.1 20.9,22.6 11,13.7 0.3,23.2 1.7,24.7 11,16.3 		"/>
	</defs>
	<clipPath id="SVGID_4_">
		<use xlink:href="#SVGID_3_"  style="overflow:visible;"/>
	</clipPath>
	<rect x="-4.7" y="8.7" class="st1" width="45.2" height="21.6"/>
</g>
<g>
	<defs>
		<path id="SVGID_5_" d="M21,12c1.1,0,2-0.9,2-2s-0.9-2-2-2s-2,0.9-2,2S19.9,12,21,12z M21,14c-2.2,0-4-1.8-4-4s1.8-4,4-4s4,1.8,4,4
			S23.2,14,21,14z"/>
	</defs>
	<clipPath id="SVGID_6_">
		<use xlink:href="#SVGID_5_"  style="overflow:visible;"/>
	</clipPath>
	<rect x="12" y="1" class="st2" width="18" height="18"/>
</g>
</svg>
