<?xml version="1.0" encoding="UTF-8"?>
<svg width="20px" height="18px" viewBox="0 0 20 18" version="1.1" xmlns="http://www.w3.org/2000/svg" xmlns:xlink="http://www.w3.org/1999/xlink">
    <!-- Generator: Sketch 43.1 (39012) - http://www.bohemiancoding.com/sketch -->
    <title>like</title>
    <desc>Created with Sketch.</desc>
    <defs></defs>
    <g id="V7---Kits-2" stroke="none" stroke-width="1" fill="none" fill-rule="evenodd">
        <g id="Individual-Item---2-active-code-Copy-2" transform="translate(-1063.000000, -119.000000)" stroke="#1197EB" fill="#1197EB">
            <path d="M1072.89181,136.172796 L1072.89181,136.172796 C1072.7397,136.172796 1072.59219,136.112996 1072.48455,136.00505 L1065.81455,129.33505 L1065.76671,129.284756 C1063.55166,127.01113 1063.39342,123.490596 1065.4395,121.44329 C1067.37426,119.50853 1070.61695,119.53613 1072.89426,121.422743 C1075.16911,119.537356 1078.41426,119.510983 1080.34657,121.44329 C1082.39357,123.490596 1082.24146,127.013583 1080.00617,129.29549 L1079.96078,129.345783 L1073.29906,136.00505 C1073.19142,136.112996 1073.04514,136.172796 1072.89181,136.172796 Z M1069.03701,121.14613 L1069.03701,121.14613 C1067.99833,121.129263 1066.99553,121.528236 1066.25401,122.254116 C1064.64401,123.864116 1064.80715,126.65417 1066.60391,128.489263 L1066.64593,128.532503 L1072.89181,134.785743 L1079.14627,128.531276 L1079.18553,128.489263 C1080.98259,126.649263 1081.13838,123.859516 1079.53298,122.25657 C1077.92789,120.65393 1075.13323,120.807263 1073.30029,122.60157 C1073.07029,122.81133 1072.71823,122.81133 1072.48823,122.60157 C1071.57161,121.68525 1070.33298,121.164223 1069.03701,121.14613 Z" id="like"></path>
        </g>
    </g>
</svg>